<svg xmlns="http://www.w3.org/2000/svg" viewBox="0 0 126.61 126.61" width="48" height="48" role="img" aria-label="Binance">
  <g fill="#F0B90B">
    <path d="M38.73 53.2 63.3 28.62l24.6 24.6 14.3-14.31L63.3 0 24.42 38.9z"/>
    <path d="M0 63.3l14.3-14.3 14.3 14.3-14.3 14.3z"/>
    <path d="M38.73 73.41 63.3 97.99l24.59-24.6 14.31 14.29-.01.01L63.3 126.61 24.42 87.72l-.02-.02z"/>
    <path d="M98.01 63.31l14.3-14.31 14.3 14.3-14.3 14.31z"/>
    <path d="M77.81 63.3 63.3 48.78 52.57 59.51l-1.23 1.24-2.54 2.54-.02.01.02.02L63.3 77.83l14.51-14.52z"/>
  </g>
</svg>
