<svg xmlns="http://www.w3.org/2000/svg" viewBox="0 0 210 52" role="img" aria-labelledby="title">
  <title id="title">Kinetick</title>
  <path fill="#F4F4F4" d="M14 8h8v15.1L36.4 8h10.4L30.2 25.1 48 44H37.1L22 27.4V44h-8V8Zm41.4 10.3h7.4V44h-7.4V18.3Zm-.5-8.2c0-2.3 1.8-4 4.2-4 2.3 0 4.1 1.7 4.1 4s-1.8 4.1-4.1 4.1c-2.4 0-4.2-1.8-4.2-4.1ZM73 18.3h7.1v3.2c1.8-2.4 4.5-3.8 8-3.8 6 0 10.1 4.2 10.1 11.1V44h-7.4V29.9c0-3.6-1.9-5.6-5.1-5.6-3.3 0-5.3 2.2-5.3 5.8V44H73V18.3Zm44.3 26.3c-7.9 0-13.5-5.4-13.5-13.4 0-7.9 5.5-13.5 13-13.5 7.7 0 12.6 5.1 12.6 13.1 0 .8-.1 1.7-.2 2.5h-18.1c.7 3.3 3 5.1 6.3 5.1 2.5 0 4.3-.9 5.7-2.6l4.4 4.1c-2.4 3-5.8 4.7-10.2 4.7Zm-6.1-16.2h11.3c-.5-3.1-2.5-4.9-5.6-4.9-3 0-5.1 1.8-5.7 4.9Zm28.9-3.8h-4.4v-6.3h4.4v-6.7h7.4v6.7h7.3v6.3h-7.3v10.6c0 2.1 1.1 3.1 3.1 3.1 1.2 0 2.4-.3 3.5-.8v6.1c-1.5.7-3.3 1-5.4 1-5.4 0-8.6-3-8.6-8.7V24.6Zm22.8-6.3h7.4V44h-7.4V18.3Zm-.5-8.2c0-2.3 1.8-4 4.2-4 2.3 0 4.1 1.7 4.1 4s-1.8 4.1-4.1 4.1c-2.4 0-4.2-1.8-4.2-4.1Zm28.5 34.5c-7.9 0-13.6-5.7-13.6-13.4s5.7-13.5 13.7-13.5c5 0 9 2.2 11.4 5.8l-5.5 3.7c-1.4-2-3.3-3.1-5.8-3.1-3.8 0-6.4 3-6.4 7.1 0 4 2.6 7 6.5 7 2.5 0 4.6-1.1 6-3.1l5.5 3.7c-2.5 3.7-6.5 5.8-11.8 5.8Z"/>
  <path fill="#FF4200" d="M0 7h8v8H0V7Zm0 15h8v8H0v-8Zm0 15h8v8H0v-8Z"/>
</svg>
