<svg xmlns="http://www.w3.org/2000/svg" viewBox="0 0 180 48" role="img" aria-labelledby="title">
  <title id="title">MetaTrader 5</title>
  <defs>
    <linearGradient id="mt5a" x1="18" x2="39" y1="6" y2="40" gradientUnits="userSpaceOnUse">
      <stop stop-color="#9BE36A"/>
      <stop offset="1" stop-color="#1D9D56"/>
    </linearGradient>
    <linearGradient id="mt5b" x1="35" x2="57" y1="9" y2="41" gradientUnits="userSpaceOnUse">
      <stop stop-color="#67D7FF"/>
      <stop offset="1" stop-color="#1769D7"/>
    </linearGradient>
    <linearGradient id="mt5c" x1="10" x2="34" y1="25" y2="42" gradientUnits="userSpaceOnUse">
      <stop stop-color="#FFD855"/>
      <stop offset="1" stop-color="#C58D11"/>
    </linearGradient>
  </defs>
  <circle cx="25" cy="18" r="10" fill="url(#mt5a)"/>
  <circle cx="43" cy="18" r="10" fill="url(#mt5b)"/>
  <circle cx="19" cy="33" r="10" fill="url(#mt5c)"/>
  <circle cx="35" cy="34" r="10" fill="#5BA7F1"/>
  <path fill="#8BE15A" d="M31.5 24.5c3.5 1.4 6.1 4.5 6.8 8.2a10.1 10.1 0 0 1-11.7-2.8 10.2 10.2 0 0 1 4.9-5.4Z" opacity=".88"/>
  <path fill="#F4F4F4" d="M67.4 10h7.8l8.1 13 8.1-13h7.8v29h-6.4V20.1l-9.5 13.2h-.2l-9.4-13.1V39h-6.3V10Zm38.1 0h22.1v5.7h-15.7v5.9h13.8v5.7h-13.8v6.1h15.9V39h-22.3V10Zm34.7 5.9h-8.8V10h24v5.9h-8.8V39h-6.4V15.9Zm18.6-5.9h13.3c3.7 0 6.5 1 8.4 2.9 1.6 1.6 2.5 3.9 2.5 6.6v.1c0 4.7-2.5 7.6-6.2 9l7.1 10.4h-7.5l-6.2-9.3h-5V39h-6.4V10Zm12.9 14.1c3.1 0 4.9-1.7 4.9-4.1v-.1c0-2.7-1.9-4.1-5-4.1h-6.3v8.3h6.4Z"/>
</svg>
