<svg xmlns="http://www.w3.org/2000/svg" viewBox="0 0 180 48" role="img" aria-labelledby="title">
  <title id="title">TradingView</title>
  <path fill="#F4F4F4" d="M74.2 15.4H63.8V8.8h28v6.6H81.5V39h-7.3V15.4Zm22.1 1.2h6.8v4.4c1.4-3 3.8-4.8 7.6-4.6v7.2h-.4c-4.5 0-7.2 2.7-7.2 8.4v7h-6.8V16.6Zm15.6 11.3v-.1c0-7.2 5.6-11.7 11.7-11.7 3.4 0 5.6 1.3 7.1 3.1v-2.6h6.8V39h-6.8v-3c-1.6 2-3.8 3.4-7.2 3.4-6 0-11.6-4.6-11.6-11.5Zm18.9 0v-.1c0-3.6-2.4-6-5.9-6s-6 2.4-6 6v.1c0 3.6 2.5 6 6 6s5.9-2.4 5.9-6Zm12-11.3h6.8v3.2c1.5-1.9 3.4-3.6 6.7-3.6 4.9 0 7.7 3.2 7.7 8.5V39h-6.8V26.8c0-2.9-1.4-4.5-3.8-4.5s-3.9 1.6-3.9 4.5V39h-6.8V16.6Zm24.5 19.4 2.9-4.4c2.4 1.7 5 2.6 7.1 2.6 1.9 0 2.7-.7 2.7-1.7v-.1c0-1.4-2.2-1.9-4.7-2.7-3.2-.9-6.9-2.4-6.9-6.7v-.1c0-4.5 3.7-7.1 8.2-7.1 2.8 0 5.9 1 8.4 2.6l-2.6 4.6c-2.2-1.3-4.4-2.1-5.9-2.1-1.6 0-2.4.7-2.4 1.6v.1c0 1.3 2.1 1.9 4.6 2.8 3.2 1.1 7 2.6 7 6.6v.1c0 5-3.7 7.2-8.6 7.2-3.2 0-6.7-1.1-9.8-3.4Z"/>
  <path fill="#F4F4F4" d="M19.2 9h21.2c6.9 0 12.5 5.6 12.5 12.5S47.3 34 40.4 34h-5.1l-6 6H18.1l6-6h-4.9C12.3 34 6.8 28.4 6.8 21.5S12.3 9 19.2 9Z"/>
  <circle cx="24.4" cy="21.5" r="5.4" fill="#2962FF"/>
  <path fill="#2962FF" d="M40.2 16.1a5.4 5.4 0 1 1 0 10.8 5.4 5.4 0 0 1 0-10.8Z"/>
</svg>
